<?xml version="1.0" standalone="no"?>
<!DOCTYPE svg PUBLIC "-//W3C//DTD SVG 20010904//EN"
 "http://www.w3.org/TR/2001/REC-SVG-20010904/DTD/svg10.dtd">
<svg version="1.0" xmlns="http://www.w3.org/2000/svg"
 width="200.000000pt" height="200.000000pt" viewBox="0 0 200.000000 200.000000"
 preserveAspectRatio="xMidYMid meet">
<metadata>
Created by potrace 1.11, written by Peter Selinger 2001-2013
</metadata>
<g transform="translate(0.000000,200.000000) scale(0.100000,-0.100000)"
fill="#000000" stroke="none">
<path d="M730 1753 c-14 -9 -28 -22 -32 -27 -4 -6 -8 -7 -8 -3 0 5 -12 0 -27
-10 -16 -10 -40 -25 -55 -33 -16 -7 -28 -17 -28 -22 0 -4 -6 -8 -12 -8 -21 -1
-118 -67 -110 -75 4 -5 1 -5 -6 -1 -7 5 -21 2 -30 -6 -9 -8 -34 -23 -55 -33
-40 -21 -57 -52 -36 -66 8 -5 9 -9 3 -9 -11 0 -11 -211 1 -229 3 -6 2 -11 -4
-11 -6 0 -8 -6 -6 -12 3 -7 7 -120 9 -250 2 -130 7 -241 11 -247 3 -6 1 -11
-5 -11 -6 0 -9 -4 -6 -9 3 -5 6 -56 7 -115 2 -81 5 -106 16 -106 7 0 13 -5 13
-12 0 -6 3 -8 7 -5 3 4 12 2 18 -3 7 -6 32 -21 56 -34 103 -54 134 -71 139
-76 5 -5 41 -25 134 -74 26 -14 52 -23 57 -20 5 3 9 2 8 -3 -4 -22 4 -22 34 1
19 15 37 26 40 26 18 0 126 74 120 83 -3 6 -1 7 6 3 10 -6 76 25 91 44 3 3 19
12 35 21 97 47 345 204 346 218 0 9 3 11 5 4 4 -8 16 -5 42 10 20 11 39 24 42
27 3 3 22 14 43 25 20 11 37 23 37 28 0 4 5 5 10 2 6 -3 13 1 16 9 3 9 9 14
14 11 12 -7 8 109 -4 117 -7 5 -7 8 -1 8 6 0 9 69 7 193 -3 184 -4 193 -25
209 -12 9 -25 15 -28 12 -4 -2 -9 0 -11 4 -1 5 -30 23 -63 41 -33 18 -79 44
-102 58 -24 14 -43 21 -43 16 0 -4 -4 -3 -8 2 -14 21 -63 46 -75 39 -7 -4 -9
-4 -5 1 7 8 -102 77 -142 90 -11 3 -20 11 -20 16 0 5 -9 9 -19 9 -11 0 -26 6
-33 14 -8 7 -50 32 -93 56 -44 23 -93 50 -110 60 -62 37 -126 70 -133 70 -4 0
-19 -8 -32 -17z m555 -321 c-3 -3 -11 0 -18 7 -9 10 -8 11 6 5 10 -3 15 -9 12
-12z m162 -227 c0 -8 -4 -12 -9 -9 -5 3 -6 10 -3 15 9 13 12 11 12 -6z m7
-323 c3 -5 -1 -9 -9 -9 -8 0 -12 4 -9 9 3 4 7 8 9 8 2 0 6 -4 9 -8z m-404
-482 c0 -5 -5 -10 -11 -10 -5 0 -7 5 -4 10 3 6 8 10 11 10 2 0 4 -4 4 -10z
m-345 -80 c3 -5 1 -10 -4 -10 -6 0 -11 5 -11 10 0 6 2 10 4 10 3 0 8 -4 11
-10z"/>
</g>
</svg>
